<svg xmlns="http://www.w3.org/2000/svg" xmlns:xlink="http://www.w3.org/1999/xlink" width="1280" height="1106" viewBox="0 0 1280 1106">
  <defs>
    <linearGradient id="linear-gradient" x1="0.75" x2="0.256" y2="1" gradientUnits="objectBoundingBox">
      <stop offset="0" stop-color="#585eff"/>
      <stop offset="1" stop-color="#0080ff"/>
    </linearGradient>
    <filter id="Polygon_2" x="339.5" y="215" width="601" height="688" filterUnits="userSpaceOnUse">
      <feOffset dy="6" input="SourceAlpha"/>
      <feGaussianBlur stdDeviation="8" result="blur"/>
      <feFlood flood-color="#101010" flood-opacity="0.431"/>
      <feComposite operator="in" in2="blur"/>
      <feComposite in="SourceGraphic"/>
    </filter>
  </defs>
  <g id="hexaprotocol" transform="translate(-1971.354 -416.146)">
    <g id="Polygon_1" data-name="Polygon 1" transform="translate(1971.354 416.146)" stroke-linecap="round" stroke-linejoin="round" fill="url(#linear-gradient)">
      <path d="M 918.4782104492188 1091 L 361.5221862792969 1091 C 341.2461853027344 1091 322.3418273925781 1080.098022460938 312.1867370605469 1062.548583984375 L 33.85036468505859 581.548583984375 C 23.66054725646973 563.9391479492188 23.66054725646973 542.0609741210938 33.85036468505859 524.4515380859375 L 312.1867370605469 43.45151519775391 C 322.3420104980469 25.90206146240234 341.2461853027344 15.00006103515625 361.5221862792969 15.00006103515625 L 918.4782104492188 15.00006103515625 C 938.7542114257812 15.00006103515625 957.6583862304688 25.90206146240234 967.8134765625 43.45151519775391 L 1246.150146484375 524.4515380859375 C 1256.33984375 542.0609741210938 1256.33984375 563.9391479492188 1246.150024414062 581.548583984375 L 967.8136596679688 1062.548583984375 C 957.6583862304688 1080.098022460938 938.7542114257812 1091 918.4782104492188 1091 Z" stroke="none"/>
      <path d="M 361.5221557617188 30.0001220703125 C 346.58203125 30.0001220703125 332.6525268554688 38.033203125 325.1697998046875 50.9642333984375 L 46.833251953125 531.9642333984375 C 39.3250732421875 544.939697265625 39.3250732421875 561.0604248046875 46.833251953125 574.035888671875 L 325.1697998046875 1055.035888671875 C 332.65234375 1067.967163085938 346.5818481445312 1076 361.52197265625 1076 L 918.4781494140625 1076 C 933.4183349609375 1076 947.3477783203125 1067.967163085938 954.83056640625 1055.035888671875 L 1233.167114257812 574.035888671875 C 1240.67529296875 561.0604248046875 1240.67529296875 544.939697265625 1233.167114257812 531.9642333984375 L 954.83056640625 50.9642333984375 C 947.3477783203125 38.033203125 933.4183349609375 30.0001220703125 918.4781494140625 30.0001220703125 L 361.5221557617188 30.0001220703125 M 361.5221557617188 0.0001220703125 L 918.4781494140625 0.0001220703125 C 944.176025390625 0.0001220703125 967.92578125 13.6964111328125 980.7965087890625 35.9388427734375 L 1259.133056640625 516.9387817382812 C 1272.041870117188 539.2467651367188 1272.041870117188 566.7533569335938 1259.133056640625 589.0613403320312 L 980.7965087890625 1070.061279296875 C 967.92578125 1092.303833007812 944.176025390625 1106 918.4781494140625 1106 L 361.52197265625 1106 C 335.8241577148438 1106 312.0743408203125 1092.303833007812 299.20361328125 1070.061279296875 L 20.8673095703125 589.0613403320312 C 7.95849609375 566.7533569335938 7.95849609375 539.2467651367188 20.8673095703125 516.9387817382812 L 299.2037963867188 35.9388427734375 C 312.0745239257812 13.6964111328125 335.8243408203125 0.0001220703125 361.5221557617188 0.0001220703125 Z" stroke="none" fill="#b5d5ff"/>
    </g>
    <g transform="matrix(1, 0, 0, 1, 1971.35, 416.15)" filter="url(#Polygon_2)">
      <g id="Polygon_2-2" data-name="Polygon 2" transform="translate(916.5 233) rotate(90)" fill="rgba(255,255,255,0)" stroke-linecap="round" stroke-linejoin="round">
        <path d="M 438.4779968261719 537.9998779296875 L 201.5220031738281 537.9998779296875 C 181.24609375 537.9998779296875 162.3419036865234 527.0979614257812 152.1866302490234 509.5484008789062 L 33.85027313232422 305.0484924316406 C 23.66045379638672 287.4391174316406 23.66045379638672 265.5607604980469 33.85036468505859 247.9513092041016 L 152.1866302490234 43.45148468017578 C 162.3419036865234 25.90202903747559 181.24609375 15.00002956390381 201.5220947265625 15.00002956390381 L 438.4779968261719 15.00002956390381 C 458.75390625 15.00002956390381 477.6580810546875 25.90202903747559 487.8133544921875 43.45148468017578 L 606.1497192382812 247.9514007568359 C 616.3396606445312 265.5607604980469 616.3396606445312 287.4391174316406 606.1497192382812 305.0484008789062 L 487.8133544921875 509.5484924316406 C 477.6580810546875 527.0979614257812 458.75390625 537.9998779296875 438.4779968261719 537.9998779296875 Z" stroke="none"/>
        <path d="M 201.5221252441406 29.99993896484375 C 186.5818786621094 29.99993896484375 172.6524353027344 38.032958984375 165.169677734375 50.96426391601562 L 46.83331298828125 255.4642639160156 C 39.32489013671875 268.4394836425781 39.32489013671875 284.5602722167969 46.83331298828125 297.5355834960938 L 165.1695556640625 502.0354919433594 C 172.65234375 514.966796875 186.5818786621094 522.9998168945312 201.5220031738281 522.9998168945312 L 438.4779968261719 522.9998168945312 C 453.4180908203125 522.9998168945312 467.3475341796875 514.966796875 474.830322265625 502.0356140136719 L 593.1666870117188 297.5355834960938 C 600.6749877929688 284.5603942871094 600.6749877929688 268.4394836425781 593.1666870117188 255.4641723632812 L 474.830322265625 50.96426391601562 C 467.3475341796875 38.032958984375 453.4180908203125 29.99993896484375 438.4779968261719 29.99993896484375 L 201.5221252441406 29.99993896484375 M 201.5221252441406 -6.103515625e-05 L 438.4779968261719 -6.103515625e-05 C 464.17578125 -6.103515625e-05 487.925537109375 13.6964111328125 500.7963256835938 35.938720703125 L 619.1326904296875 240.4385986328125 C 632.0414428710938 262.7467041015625 632.0414428710938 290.2532653808594 619.1326904296875 312.5611572265625 L 500.7963256835938 517.0611572265625 C 487.925537109375 539.303466796875 464.17578125 552.9998168945312 438.4779968261719 552.9998168945312 L 201.5220031738281 552.9998168945312 C 175.82421875 552.9998168945312 152.0744323730469 539.303466796875 139.2035522460938 517.0611572265625 L 20.8673095703125 312.5611572265625 C 7.95843505859375 290.253173828125 7.95843505859375 262.7466125488281 20.8673095703125 240.4385986328125 L 139.2036743164062 35.938720703125 C 152.0744323730469 13.6964111328125 175.82421875 -6.103515625e-05 201.5221252441406 -6.103515625e-05 Z" stroke="none" fill="#fff"/>
      </g>
    </g>
  </g>
</svg>
